#!OML:ASF G:\JayActor3\Patient Classification 1\Patient 1\Session 6\male.ASF
:FULLY-SPECIFIED
:DEGREES
529
root 9.63024 15.8375 -9.73929 -355.566 -22.5602 -11.722
lowerback 0.848253 1.14475 10.3573
upperback 3.76832 1.36265 0.713953
thorax 3.70753 0.989479 -5.02031
lowerneck -7.64349 -2.10255 1.37252
upperneck 9.95404 -3.01486 0.0853194
head 4.66489 -1.42889 -0.410903
rclavicle -4.65156e-014 -9.54166e-015
rhumerus -27.1569 4.58793 -85.8317
rradius 36.5794
rwrist 0.925914
rhand -20.4864 -11.1726
rfingers 7.12502
rthumb 5.87021 -41.0713
lclavicle -4.65156e-014 -9.54166e-015
lhumerus -42.4886 21.4728 70.5817
lradius 14.7116
lwrist 6.35109
lhand -17.7988 13.1596
lfingers 7.12502
lthumb 8.46453 42.9699
rfemur 20.0821 -4.85281 31.5287
rtibia 19.3707
rfoot -14.7108 -6.14961
rtoes -14.4975
lfemur -33.3416 10.1481 -18.256
ltibia 28.4681
lfoot -11.494 7.36077
ltoes -14.548
530
root 9.54853 15.8603 -9.55561 -355.743 -22.5414 -11.4515
lowerback 0.778328 1.14569 10.1641
upperback 3.76203 1.3621 0.611773
thorax 3.73568 0.986574 -5.01862
lowerneck -7.65964 -2.16869 1.29384
upperneck 10.0303 -3.11597 0.265015
head 4.70009 -1.47148 -0.343424
rclavicle -8.64713e-015 -1.66979e-014
rhumerus -27.4717 4.63872 -86.1184
rradius 36.57
rwrist 0.929557
rhand -20.3338 -11.1476
rfingers 7.12502
rthumb 6.01755 -41.0421
lclavicle -8.64713e-015 -1.66979e-014
lhumerus -42.5284 21.5095 70.709
lradius 14.5402
lwrist 6.16653
lhand -17.3973 13.2006
lfingers 7.12502
lthumb 8.85192 42.995
rfemur 18.9923 -4.91045 31.075
rtibia 22.3286
rfoot -13.4401 -6.26184
rtoes -13.6599
lfemur -32.9509 10.1343 -18.3161
ltibia 29.1581
lfoot -11.1927 7.30925
ltoes -14.2796
531
root 9.4677 15.883 -9.37508 -355.912 -22.5037 -11.2061
lowerback 0.744349 1.14434 9.99853
upperback 3.75165 1.36287 0.510633
thorax 3.74042 0.983892 -5.03198
lowerneck -7.68988 -2.24519 1.22253
upperneck 10.1113 -3.23228 0.442926
head 4.74018 -1.52117 -0.279096
rclavicle -4.8901e-014 -2.14687e-014
rhumerus -27.8246 4.676 -86.41
rradius 36.5762
rwrist 0.946876
rhand -20.1258 -11.0982
rfingers 7.12502
rthumb 6.21838 -40.987
lclavicle -4.8901e-014 -2.14687e-014
lhumerus -42.5073 21.3985 70.9575
lradius 14.4669
lwrist 6.13146
lhand -17.1271 13.2227
lfingers 7.12502
lthumb 9.11267 43.0058
rfemur 17.6838 -5.02874 30.6208
rtibia 25.5561
rfoot -11.9272 -6.64925
rtoes -12.4563
lfemur -32.4955 10.2018 -18.3907
ltibia 29.748
lfoot -10.9183 7.24579
ltoes -14.0741
532
root 9.38688 15.9057 -9.19828 -356.106 -22.4653 -10.9196
lowerback 0.770816 1.14014 9.77444
upperback 3.72865 1.36877 0.401816
thorax 3.69627 0.979393 -5.02182
lowerneck -7.72489 -2.32628 1.17108
upperneck 10.2024 -3.35546 0.600677
head 4.78467 -1.57433 -0.225775
rclavicle 4.91992e-014 7.95139e-015
rhumerus -28.2232 4.70223 -86.6983
rradius 36.6035
rwrist 0.993174
rhand -19.8403 -11.0211
rfingers 7.12502
rthumb 6.49401 -40.9015
lclavicle 4.91992e-014 7.95139e-015
lhumerus -42.4474 21.1179 71.3376
lradius 14.503
lwrist 6.29407
lhand -16.9537 13.2233
lfingers 7.12502
lthumb 9.28001 42.999
rfemur 16.2022 -5.13823 30.1365
rtibia 28.9965
rfoot -10.2082 -7.37349
rtoes -10.9353
lfemur -31.9536 10.3497 -18.5362
ltibia 30.2068
lfoot -10.6641 7.18061
ltoes -13.8993
533
root 9.30496 15.9293 -9.02496 -356.336 -22.4463 -10.5491
lowerback 0.865445 1.13462 9.42876
upperback 3.68421 1.3833 0.283594
thorax 3.58777 0.972101 -4.95474
lowerneck -7.76134 -2.40539 1.13352
upperneck 10.3095 -3.47501 0.729739
head 4.83494 -1.62647 -0.18464
rclavicle -6.36111e-015 -1.74931e-014
rhumerus -28.6712 4.75186 -86.9804
rradius 36.6591
rwrist 1.04371
rhand -19.4739 -10.9288
rfingers 7.12502
rthumb 6.84766 -40.7981
lclavicle -6.36111e-015 -1.74931e-014
lhumerus -42.3876 20.7475 71.7862
lradius 14.6425
lwrist 6.60866
lhand -16.8488 13.2075
lfingers 7.12502
lthumb 9.38121 42.9787
rfemur 14.588 -5.15998 29.614
rtibia 32.5843
rfoot -8.34012 -8.41082
rtoes -9.05884
lfemur -31.3165 10.5579 -18.7769
ltibia 30.5095
lfoot -10.4273 7.12505
ltoes -13.7494
534
root 9.22161 15.9544 -8.85396 -356.597 -22.4654 -10.0961
lowerback 1.02348 1.1302 8.95424
upperback 3.61113 1.40776 0.161586
thorax 3.41011 0.962449 -4.82058
lowerneck -7.73617 -2.47712 1.1213
upperneck 10.7782 -3.58479 0.822132
head 4.49276 -1.67304 -0.148601
rclavicle 2.09718e-014 -1.27222e-014
rhumerus -29.1684 4.84038 -87.2541
rradius 36.7428
rwrist 1.09436
rhand -19.0313 -10.8357
rfingers 7.12502
rthumb 7.27497 -40.6907
lclavicle 2.09718e-014 -1.27222e-014
lhumerus -42.3594 20.3202 72.2755
lradius 14.8846
lwrist 7.0385
lhand -16.7737 13.1749
lfingers 7.12502
lthumb 9.45371 42.9429
rfemur 12.8755 -5.04891 29.0697
rtibia 36.2548
rfoot -6.34737 -9.69022
rtoes -6.92333
lfemur -30.5861 10.8306 -19.102
ltibia 30.6444
lfoot -10.2103 7.05612
ltoes -13.5202
535
root 9.13668 15.9812 -8.68406 -356.885 -22.5226 -9.55693
lowerback 1.23219 1.12717 8.34808
upperback 3.50642 1.43901 0.0370453
thorax 3.16717 0.949789 -4.61626
lowerneck -7.75232 -2.54098 1.09237
upperneck 10.9296 -3.68069 0.903819
head 4.54399 -1.71505 -0.126357
rclavicle 4.35338e-014 -8.74653e-015
rhumerus -29.7098 4.96357 -87.5185
rradius 36.8474
rwrist 1.15063
rhand -18.5224 -10.7509
rfingers 7.12502
rthumb 7.76614 -40.5883
lclavicle 4.35338e-014 -8.74653e-015
lhumerus -42.3717 19.787 72.8376
lradius 15.2421
lwrist 7.64916
lhand -16.7484 13.1408
lfingers 7.12502
lthumb 9.47809 42.9076
rfemur 11.0988 -4.79584 28.5024
rtibia 39.9424
rfoot -4.25679 -11.1089
rtoes -4.42893
lfemur -29.7684 11.1493 -19.5072
ltibia 30.6221
lfoot -10.0369 6.94935
ltoes -13.1352
536
root 9.05135 16.0096 -8.51387 -357.196 -22.6088 -8.94466
lowerback 1.47215 1.12184 7.64544
upperback 3.37472 1.46721 -0.0890757
thorax 2.87527 0.93212 -4.36023
lowerneck -7.74782 -2.59556 1.05485
upperneck 11.0862 -3.76143 0.971641
head 4.59334 -1.7508 -0.105843
rclavicle -6.82825e-014 -4.77083e-015
rhumerus -30.2808 5.11888 -87.7728
rradius 36.9647
rwrist 1.20326
rhand -17.9609 -10.6632
rfingers 7.12502
rthumb 8.30802 -40.4798
lclavicle -6.82825e-014 -4.77083e-015
lhumerus -42.4355 19.2268 73.4189
lradius 15.6949
lwrist 8.34758
lhand -16.7629 13.1096
lfingers 7.12502
lthumb 9.46409 42.8771
rfemur 9.28571 -4.43829 27.9008
rtibia 43.5836
rfoot -2.05359 -12.582
rtoes -1.63746
lfemur -28.8732 11.4908 -19.9794
ltibia 30.4691
lfoot -9.93015 6.80669
ltoes -12.5882
537
root 8.96663 16.0391 -8.34259 -357.514 -22.7048 -8.28519
lowerback 1.71134 1.10858 6.89084
upperback 3.22934 1.47947 -0.213802
thorax 2.56692 0.906619 -4.07361
lowerneck -7.72038 -2.6408 0.998154
upperneck 11.2283 -3.82691 1.04031
head 4.6349 -1.78005 -0.0805826
rclavicle -2.31584e-014 1.90833e-014
rhumerus -30.855 5.29979 -88.0209
rradius 37.0791
rwrist 1.25695
rhand -17.3952 -10.5939
rfingers 7.12502
rthumb 8.85396 -40.3882
lclavicle -2.31584e-014 1.90833e-014
lhumerus -42.5268 18.6371 74.0301
lradius 16.2317
lwrist 9.12525
lhand -16.8436 13.1091
lfingers 7.12502
lthumb 9.38626 42.8801
rfemur 7.44879 -4.02845 27.2692
rtibia 47.1257
rfoot 0.225671 -14.1108
rtoes 1.02813
lfemur -27.9163 11.829 -20.4936
ltibia 30.215
lfoot -9.90617 6.63449
ltoes -11.8822
538
root 8.88221 16.0686 -8.1705 -357.857 -22.7828 -7.5729
lowerback 1.93363 1.08134 6.08467
upperback 3.09067 1.46524 -0.342782
thorax 2.27211 0.870017 -3.76174
lowerneck -7.66854 -2.68013 0.927034
upperneck 11.3331 -3.88295 1.11937
head 4.66147 -1.80518 -0.048501
rclavicle -2.54444e-014 -8.74653e-015
rhumerus -31.4028 5.48613 -88.2658
rradius 37.1739
rwrist 1.30366
rhand -16.8568 -10.529
rfingers 7.12502
rthumb 9.37348 -40.3006
lclavicle -2.54444e-014 -8.74653e-015
lhumerus -42.6094 18.0389 74.656
lradius 16.8221
lwrist 9.94086
lhand -17.0016 13.1398
lfingers 7.12502
lthumb 9.23378 42.9176
rfemur 5.61631 -3.62765 26.5915
rtibia 50.5275
rfoot 2.45139 -15.6492
rtoes 2.91983
lfemur -26.895 12.1488 -21.0535
ltibia 29.8822
lfoot -9.9611 6.43759
ltoes -11.0958
539
root 8.79942 16.0969 -7.9988 -358.223 -22.8268 -6.82126
lowerback 2.13491 1.03669 5.263
upperback 2.97652 1.41958 -0.481471
thorax 2.01328 0.821654 -3.44984
lowerneck -7.60603 -2.71632 0.838347
upperneck 11.3881 -3.93415 1.22033
head 4.6718 -1.82793 -0.00591922
rclavicle 3.88624e-014 7.95139e-016
rhumerus -31.8879 5.66715 -88.5102
rradius 37.2302
rwrist 1.3418
rhand -16.39 -10.4745
rfingers 7.12502
rthumb 9.82387 -40.2253
lclavicle 3.88624e-014 7.95139e-016
lhumerus -42.6425 17.5265 75.2301
lradius 17.4142
lwrist 10.6588
lhand -17.2526 13.1852
lfingers 7.12502
lthumb 8.99155 42.9736
rfemur 3.79522 -3.2931 25.8621
rtibia 53.7634
rfoot 4.43692 -17.0836
rtoes 3.92247
lfemur -25.8226 12.4342 -21.6473
ltibia 29.4855
lfoot -10.073 6.22561
ltoes -10.2652
